<svg width="128" height="112" viewBox="0 0 128 112" fill="none" xmlns="http://www.w3.org/2000/svg">
<path d="M52.2814 76.4484C46.6746 81.2413 44.4192 86.3316 43.8887 88.6571L50.4003 93.744C50.9309 91.4186 53.1862 86.3282 58.7931 81.5354C61.3644 79.3374 64.2538 78.2453 67.3552 77.0731C71.0166 75.6892 74.9736 74.1936 79.0515 70.6348C87.8784 62.9317 90.0489 55.9553 90.0489 55.9553L83.5373 50.8684C83.5373 50.8684 81.3668 57.8448 72.5399 65.5479C68.4619 69.1066 64.505 70.6022 60.8436 71.9861C57.7421 73.1584 54.8527 74.2505 52.2814 76.4484Z" fill="url(#paint0_linear_40001124_10437)"/>
<path d="M70.9481 91.1284C65.3412 95.9212 63.0859 101.012 62.5553 103.337L69.0669 108.424C69.5975 106.099 71.8528 101.008 77.4597 96.2153C80.1591 93.9078 83.1237 92.7146 86.3541 91.4144C89.8336 90.0139 93.6214 88.4893 97.7181 85.3147C102.783 81.39 106.111 75.7217 106.111 75.7217L99.5993 70.6348C99.5993 70.6348 98.7387 73.6546 91.2065 80.2278C87.1285 83.7865 83.1716 85.2821 79.5102 86.666C76.4087 87.8383 73.5193 88.9304 70.9481 91.1284Z" fill="url(#paint1_linear_40001124_10437)"/>
<path d="M53.0049 96.0695C53.5355 93.7441 55.7908 88.6537 61.3977 83.8609C63.969 81.6629 66.8584 80.5708 69.9598 79.3985C73.6212 78.0146 77.5782 76.519 81.6561 72.9603C92.6481 63.3678 94.9688 52.9032 94.9688 52.9032L101.48 57.9901C101.48 57.9901 98.5864 69.7628 88.1677 78.0472C84.0671 81.3079 80.2399 82.8284 76.7186 84.2273C73.5219 85.4973 70.5773 86.6672 67.9093 88.9478C62.3025 93.7406 60.0471 98.831 59.5165 101.156L53.0049 96.0695Z" fill="url(#paint2_linear_40001124_10437)"/>
<path d="M88.7116 33.0238H82.6091C81.4745 33.0238 80.5413 32.6061 80.5413 31.3666C80.5413 30.0218 81.3696 29.6507 82.6091 29.6507H88.7116V33.0238ZM90.5734 20.4211C89.7135 19.8332 88.3979 19.494 86.6048 19.494H77.3983L77.4007 22.9042H85.1495C87.7342 22.9042 88.7116 23.7871 88.7116 25.8892V26.3138H82.3692C80.3358 26.3138 78.8193 26.7156 77.8198 27.7508C76.9576 28.6475 76.4232 29.8026 76.4232 31.353C76.4232 33.1121 77.0949 34.4729 78.2337 35.2999C79.2332 36.0238 80.681 36.3863 82.5771 36.3863H92.9864V26.9573C92.9864 23.7503 92.1952 21.5236 90.5734 20.4211ZM113.104 19.5157C111.313 19.5157 110.211 20.4471 109.66 22.1332L106.597 31.3389L103.538 22.1332C102.986 20.4471 101.884 19.5157 100.091 19.5157L95.8627 19.5245V36.3788H100.483V24.5001L104.405 36.3878H108.79L112.712 24.5001V36.3878H117.333V19.5245L113.104 19.5157ZM69.3042 26.2956H62.3051V19.5049H57.6848V36.3863H62.3051V29.6323H69.3042V36.3863H73.9223V19.5049H69.3042V26.2956ZM26.9939 33.0068H25.8889V22.9051H27.3393C30.2032 22.9051 31.7588 24.8417 31.7588 27.8464C31.7588 31.1254 30.1689 33.0068 26.9939 33.0068ZM21.2639 33.0068H20.159C16.9838 33.0068 15.394 31.1254 15.394 27.8464C15.394 24.7745 16.9499 22.9051 19.8136 22.9051H21.2639V33.0068ZM28.6499 19.501L25.8889 19.4977V17.8891H21.2639V19.4977L18.5028 19.501C13.5323 19.501 10.666 22.6684 10.666 28.192C10.666 33.2665 13.5323 36.3755 18.9168 36.3755H21.2639V38.019H25.8889V36.3755H28.236C30.9625 36.3755 33.0351 35.5779 34.4487 34.0933C35.7961 32.6789 36.4844 30.7105 36.4844 28.192C36.4844 22.6684 33.6206 19.501 28.6499 19.501ZM43.1061 29.6323V19.5049H38.4858V36.3863H43.1061L50.1028 26.2956V36.3863H54.7206V19.5049H50.1028L43.1061 29.6323Z" fill="#EBEBF2"/>
<defs>
<linearGradient id="paint0_linear_40001124_10437" x1="94.2491" y1="50.8684" x2="46.594" y2="50.8684" gradientUnits="userSpaceOnUse">
<stop stop-color="#FEDA3B"/>
<stop offset="0.47" stop-color="#EF5541"/>
<stop offset="0.815" stop-color="#801FDB"/>
<stop offset="1" stop-color="#7E2A89"/>
</linearGradient>
<linearGradient id="paint1_linear_40001124_10437" x1="94.2491" y1="50.8684" x2="46.594" y2="50.8684" gradientUnits="userSpaceOnUse">
<stop stop-color="#FEDA3B"/>
<stop offset="0.47" stop-color="#EF5541"/>
<stop offset="0.815" stop-color="#801FDB"/>
<stop offset="1" stop-color="#7E2A89"/>
</linearGradient>
<linearGradient id="paint2_linear_40001124_10437" x1="94.2491" y1="50.8684" x2="46.594" y2="50.8684" gradientUnits="userSpaceOnUse">
<stop stop-color="#FEDA3B"/>
<stop offset="0.47" stop-color="#EF5541"/>
<stop offset="0.815" stop-color="#801FDB"/>
<stop offset="1" stop-color="#7E2A89"/>
</linearGradient>
</defs>
</svg>
