<svg width="128" height="112" viewBox="0 0 128 112" fill="none" xmlns="http://www.w3.org/2000/svg">
<path d="M41.2814 39.4692C35.6746 44.262 33.4192 49.3524 32.8887 51.6779L39.4003 56.7648C39.9309 54.4393 42.1862 49.349 47.7931 44.5561C50.3644 42.3582 53.2538 41.2661 56.3552 40.0938C60.0166 38.7099 63.9736 37.2143 68.0515 33.6556C76.8784 25.9525 79.0489 18.9761 79.0489 18.9761L72.5373 13.8892C72.5373 13.8892 70.3668 20.8655 61.5399 28.5686C57.4619 32.1274 53.505 33.623 49.8436 35.0069C46.7421 36.1791 43.8527 37.2712 41.2814 39.4692Z" fill="#0022FF"/>
<path d="M59.9481 54.1491C54.3412 58.942 52.0859 64.0323 51.5553 66.3578L58.0669 71.4447C58.5975 69.1193 60.8528 64.0289 66.4597 59.2361C69.1591 56.9286 72.1237 55.7353 75.3541 54.4351C78.8336 53.0347 82.6214 51.5101 86.7181 48.3355C91.7827 44.4108 95.1109 38.7425 95.1109 38.7425L88.5993 33.6555C88.5993 33.6555 87.7387 36.6753 80.2065 43.2485C76.1285 46.8073 72.1716 48.3029 68.5102 49.6868C65.4087 50.859 62.5193 51.9511 59.9481 54.1491Z" fill="#0022FF"/>
<path d="M42.0049 59.0903C42.5355 56.7648 44.7908 51.6745 50.3977 46.8816C52.969 44.6836 55.8584 43.5915 58.9598 42.4193C62.6212 41.0354 66.5782 39.5398 70.6561 35.981C81.6481 26.3885 83.9688 15.924 83.9688 15.924L90.4804 21.0109C90.4804 21.0109 87.5864 32.7835 77.1677 41.068C73.0671 44.3286 69.2399 45.8491 65.7186 47.2481C62.5219 48.5181 59.5773 49.6879 56.9093 51.9686C51.3025 56.7614 49.0471 61.8518 48.5165 64.1772L42.0049 59.0903Z" fill="#0022FF"/>
<path d="M88.7121 95.7364H82.6096C81.475 95.7364 80.5418 95.3188 80.5418 94.0793C80.5418 92.7345 81.3701 92.3633 82.6096 92.3633H88.7121V95.7364ZM90.5738 83.1338C89.714 82.5458 88.3984 82.2066 86.6053 82.2066H77.3988L77.4011 85.6168H85.15C87.7347 85.6168 88.7121 86.4997 88.7121 88.6018V89.0264H82.3697C80.3363 89.0264 78.8198 89.4283 77.8202 90.4635C76.9581 91.3601 76.4237 92.5153 76.4237 94.0657C76.4237 95.8248 77.0954 97.1855 78.2342 98.0125C79.2337 98.7365 80.6815 99.099 82.5776 99.099H92.9868V89.6699C92.9868 86.4629 92.1957 84.2362 90.5738 83.1338ZM113.105 82.2283C111.314 82.2283 110.211 83.1597 109.66 84.8459L106.598 94.0515L103.538 84.8459C102.987 83.1597 101.885 82.2283 100.091 82.2283L95.8632 82.2372V99.0915H100.483V87.2128L104.406 99.1005H108.79L112.713 87.2128V99.1005H117.333V82.2372L113.105 82.2283ZM69.3047 89.0083H62.3056V82.2175H57.6853V99.099H62.3056V92.345H69.3047V99.099H73.9228V82.2175H69.3047V89.0083ZM26.9944 95.7195H25.8894V85.6178H27.3398C30.2037 85.6178 31.7593 87.5544 31.7593 90.559C31.7593 93.838 30.1694 95.7195 26.9944 95.7195ZM21.2644 95.7195H20.1595C16.9843 95.7195 15.3945 93.838 15.3945 90.559C15.3945 87.4871 16.9504 85.6178 19.8141 85.6178H21.2644V95.7195ZM28.6504 82.2137L25.8894 82.2103V80.6017H21.2644V82.2103L18.5033 82.2137C13.5328 82.2137 10.6665 85.3811 10.6665 90.9046C10.6665 95.9791 13.5328 99.0882 18.9173 99.0882H21.2644V100.732H25.8894V99.0882H28.2365C30.963 99.0882 33.0355 98.2905 34.4492 96.8059C35.7966 95.3915 36.4849 93.4231 36.4849 90.9046C36.4849 85.3811 33.6211 82.2137 28.6504 82.2137ZM43.1066 92.345V82.2175H38.4863V99.099H43.1066L50.1033 89.0083V99.099H54.721V82.2175H50.1033L43.1066 92.345Z" fill="#1EA977"/>
</svg>
